<svg xmlns="http://www.w3.org/2000/svg" width="22" height="22" viewBox="0 0 22 22">
    <g fill="none" fill-rule="evenodd">
        <path fill="#DADDE8" fill-rule="nonzero" d="M2.667 6a.833.833 0 0 0-.834.833v12.5c0 .46.373.834.834.834h16.666c.46 0 .834-.373.834-.834v-12.5A.833.833 0 0 0 19.333 6H2.667zM11 4.333h8.333a2.5 2.5 0 0 1 2.5 2.5v2.5a.833.833 0 1 1-1.666 0v-2.5A.833.833 0 0 0 19.333 6H2.667a.833.833 0 0 0-.834.833V8.5h15.834a.833.833 0 1 1 0 1.667H.167V6.833a2.5 2.5 0 0 1 2.5-2.5h16.666a2.5 2.5 0 0 1 2.5 2.5v12.5a2.5 2.5 0 0 1-2.5 2.5H2.667a2.5 2.5 0 0 1-2.5-2.5v-12.5a2.5 2.5 0 0 1 2.5-2.5H11z"/>
        <circle cx="4.75" cy="13.083" r="1.25" fill="#4D8CF4"/>
        <circle cx="8.917" cy="13.083" r="1.25" fill="#4D8CF4"/>
        <circle cx="4.75" cy="17.25" r="1.25" fill="#4D8CF4"/>
        <circle cx="8.917" cy="17.25" r="1.25" fill="#4D8CF4"/>
        <circle cx="13.083" cy="13.083" r="1.25" fill="#4D8CF4"/>
        <circle cx="13.083" cy="17.25" r="1.25" fill="#4D8CF4"/>
        <circle cx="17.25" cy="17.25" r="1.25" fill="#4D8CF4"/>
        <rect width="1.667" height="3.333" x="4.333" y=".167" fill="#4D8CF4" rx=".833"/>
        <rect width="1.667" height="3.333" x="16" y=".167" fill="#4D8CF4" rx=".833"/>
        <path fill="#4D8CF4" d="M16.833 12.322l1.079-1.077a.833.833 0 0 1 1.178 1.179l-1.612 1.608a.833.833 0 0 1-1.233.06l-.834-.836a.833.833 0 1 1 1.178-1.179l.244.245z"/>
    </g>
</svg>
