<svg xmlns="http://www.w3.org/2000/svg" width="22" height="18" viewBox="0 0 22 18">
    <g fill="none" fill-rule="evenodd">
        <path stroke="#4D8CF4" stroke-width="2" d="M17.6 7.8a1.933 1.933 0 1 0 0-3.867 1.933 1.933 0 0 0 0 3.867zm0 .533a2.467 2.467 0 1 1 0-4.933 2.467 2.467 0 0 1 0 4.933z"/>
        <path stroke="#DADDE8" stroke-width="2" d="M8.067 7.8a3.4 3.4 0 1 0 0-6.8 3.4 3.4 0 0 0 0 6.8zm0 .533a3.933 3.933 0 1 1 0-7.866 3.933 3.933 0 0 1 0 7.866z"/>
        <path fill="#4D8CF4" fill-rule="nonzero" d="M14.591 12.79a.733.733 0 1 1-1.316-.647c.846-1.721 2.323-2.61 4.316-2.61 1.99 0 3.472.887 4.332 2.606a.733.733 0 0 1-1.312.656C20.003 11.58 19.034 11 17.59 11c-1.442 0-2.404.578-3 1.79z"/>
        <path fill="#DADDE8" fill-rule="nonzero" d="M1.45 17.025a.733.733 0 0 1-1.433-.317c1.047-4.72 3.767-7.175 8.03-7.175s6.995 2.453 8.068 7.171a.733.733 0 0 1-1.43.325C13.757 12.947 11.588 11 8.048 11c-3.538 0-5.694 1.945-6.599 6.025z"/>
    </g>
</svg>
