<svg xmlns="http://www.w3.org/2000/svg" width="22" height="23" viewBox="0 0 22 23">
    <g fill="none" fill-rule="nonzero">
        <path fill="#DADDE8" d="M8.419 4.59l-.29.126c-.506.22-.984.498-1.427.825l-.256.19-2.292-.421a.733.733 0 0 0-.768.354l-1.165 2.02a.733.733 0 0 0 .076.84l1.51 1.779-.035.315a7.421 7.421 0 0 0 .001 1.655l.036.318-1.54 1.787a.733.733 0 0 0-.079.845l1.16 2.008c.155.27.464.411.77.354l2.322-.439.258.191c.443.328.922.606 1.428.827l.29.127.785 2.196c.104.292.38.486.69.486h2.335c.31 0 .586-.194.69-.486l.788-2.198.29-.127c.502-.22.978-.495 1.419-.82l.255-.19 2.296.42a.733.733 0 0 0 .767-.355l1.167-2.022a.733.733 0 0 0-.076-.84l-1.51-1.783.034-.314a7.422 7.422 0 0 0 .015-1.493l-.029-.31 1.859-2.152a.733.733 0 0 0 .08-.846L19.115 5.45a.733.733 0 0 0-.772-.353l-2.798.531-.254-.18a7.321 7.321 0 0 0-1.303-.735l-.292-.127-.78-2.193a.733.733 0 0 0-.69-.487H9.893a.733.733 0 0 0-.691.486L8.419 4.59zM7.822 1.9A2.2 2.2 0 0 1 9.894.44h2.331a2.2 2.2 0 0 1 2.073 1.462l.57 1.602c.348.168.685.358 1.008.57l2.193-.417a2.2 2.2 0 0 1 2.316 1.061l1.158 2.006a2.2 2.2 0 0 1-.24 2.538l-1.457 1.686a8.929 8.929 0 0 1-.01 1.151l1.107 1.307a2.2 2.2 0 0 1 .227 2.523l-1.167 2.021a2.2 2.2 0 0 1-2.3 1.064l-1.68-.306c-.365.25-.748.472-1.147.664l-.577 1.61a2.2 2.2 0 0 1-2.071 1.458H9.894a2.2 2.2 0 0 1-2.072-1.46l-.574-1.606a8.791 8.791 0 0 1-1.155-.67l-1.7.322a2.2 2.2 0 0 1-2.314-1.062l-1.16-2.008a2.2 2.2 0 0 1 .24-2.536l1.126-1.307a8.913 8.913 0 0 1 0-1.337L1.179 9.474A2.2 2.2 0 0 1 .951 6.95l1.165-2.02A2.2 2.2 0 0 1 4.42 3.868l1.674.308a8.791 8.791 0 0 1 1.155-.669L7.822 1.9z"/>
        <path fill="#4D8CF4" d="M11.06 15.107a3.667 3.667 0 1 1 0-7.334 3.667 3.667 0 0 1 0 7.334zm0-1.467a2.2 2.2 0 1 0 0-4.4 2.2 2.2 0 0 0 0 4.4z"/>
    </g>
</svg>
