<svg xmlns="http://www.w3.org/2000/svg" width="94" height="95" viewBox="0 0 94 95">
    <defs>
        <filter id="a" width="130%" height="148.7%" x="-12.9%" y="-24.4%" filterUnits="objectBoundingBox">
            <feOffset dy="5" in="SourceAlpha" result="shadowOffsetOuter1"/>
            <feGaussianBlur in="shadowOffsetOuter1" result="shadowBlurOuter1" stdDeviation="22.5"/>
            <feColorMatrix in="shadowBlurOuter1" result="shadowMatrixOuter1" values="0 0 0 0 0.180392157 0 0 0 0 0.407843137 0 0 0 0 0.815686275 0 0 0 0.1 0"/>
            <feMerge>
                <feMergeNode in="shadowMatrixOuter1"/>
                <feMergeNode in="SourceGraphic"/>
            </feMerge>
        </filter>
    </defs>
    <path fill="#A6A6A6" fill-rule="evenodd" d="M752.985 15.015c-1.02 0-2.04.42-2.82 1.18l-5.56 5.44c-2.14 2.14-2.14 5.6 0 7.76 2.14 2.14 5.6 2.14 7.76 0l2.5-2.5-1.38-1.38-2.32 2.26-.18.26a3.537 3.537 0 0 1-5 0c-1.36-1.36-1.32-3.56 0-4.94l5.56-5.5c.78-.78 2.08-.78 2.88 0 .78.78.74 2.02 0 2.82l-5 4.94c-.2.2-.54.2-.76 0-.2-.2-.2-.54 0-.76l.12-.06 1.82-1.88-1.38-1.38-1.94 1.94c-.96.96-.96 2.54 0 3.5s2.54.98 3.5 0l5-4.88c1.56-1.56 1.56-4.08 0-5.62a3.952 3.952 0 0 0-2.82-1.18l.02-.02z" filter="url(#a)" transform="translate(-703 19)"/>
</svg>
