<svg xmlns="http://www.w3.org/2000/svg" width="126" height="136" viewBox="0 0 126 136">
    <defs>
        <filter id="a" width="186.3%" height="267.8%" x="-43.1%" y="-75.6%" filterUnits="objectBoundingBox">
            <feOffset dy="5" in="SourceAlpha" result="shadowOffsetOuter1"/>
            <feGaussianBlur in="shadowOffsetOuter1" result="shadowBlurOuter1" stdDeviation="22.5"/>
            <feColorMatrix in="shadowBlurOuter1" result="shadowMatrixOuter1" values="0 0 0 0 0.180392157 0 0 0 0 0.407843137 0 0 0 0 0.815686275 0 0 0 0.1 0"/>
            <feMerge>
                <feMergeNode in="shadowMatrixOuter1"/>
                <feMergeNode in="SourceGraphic"/>
            </feMerge>
        </filter>
    </defs>
    <g fill="none" fill-rule="evenodd" filter="url(#a)" transform="translate(13 19)">
        <path fill="#4D8CF4" d="M30.094 37.487c7.091-4.258 12.903-10.07 17.436-17.436 5.666 1.674 11.307.99 16.923-2.051a5038.3 5038.3 0 0 1 5.034 2.564c-.027 4.82-5.838 21.572-17.435 50.257l-12.824-4.614c-3.897-1.4-5.849-3.555-7.504-7.322-1.417-3.224-1.96-10.357-1.63-21.398z"/>
        <path fill="#60D9F7" d="M35.128 40.051c7.091-4.258 12.903-10.07 17.436-17.436 5.666 1.674 11.307.99 16.923-2.05.272 10.957-.336 18.913-1.824 23.868-2.953 9.837-9.732 18.961-15.612 26.388-6.182-1.885-13.076-4.94-15.293-8.346-1.809-2.78-2.352-10.254-1.63-22.424z"/>
        <path fill="#F9F9FE" d="M38.442 42.329c5.94-4.414 10.919-9.565 14.94-15.452 4.198.94 8.524.546 12.976-1.185.258 8.402-.245 14.644-1.509 18.724-1.781 5.752-7.836 15.52-12.718 21.736-4.816-1.421-10.258-4.109-11.767-6.705-1.83-3.148-2.47-8.854-1.922-17.118z"/>
        <path fill="#ECF1FA" d="M53.382 26.877c4.198.94 8.524.546 12.976-1.185.258 8.402-.245 14.644-1.509 18.724-1.781 5.752-7.836 15.52-12.718 21.736 1.525-2.793 6.113-12.258 6.667-23.024.066-7.9-3.938-14.314-5.416-16.251z"/>
    </g>
</svg>
