<svg version="1.1" id="Layer_1" xmlns="http://www.w3.org/2000/svg" xmlns:xlink="http://www.w3.org/1999/xlink" x="0px" y="0px"
	 width="100%" viewBox="0 0 128 128" enable-background="new 0 0 128 128" xml:space="preserve">
<path fill="#FFFFFF" opacity="1.000000" stroke="none" 
	d="
M129.000000,63.000000 
	C129.000000,64.066673 129.000000,65.133339 128.689850,66.310287 
	C127.112915,67.558563 126.015739,69.021637 124.553307,69.784721 
	C108.309624,78.260529 92.030319,86.668869 75.719162,95.014366 
	C55.241310,105.491730 34.716465,115.877281 14.251604,126.379829 
	C13.302751,126.866791 12.741676,128.109344 11.999999,129.000000 
	C8.437216,129.000000 4.874432,129.000000 1.000000,129.000000 
	C1.000000,127.003677 1.000000,124.999741 1.350654,122.797012 
	C2.342335,120.665070 3.144026,118.768845 3.598186,116.792747 
	C6.441809,104.419830 9.473285,92.079346 11.834178,79.612915 
	C12.521582,75.983162 14.297127,74.563011 17.203009,74.071892 
	C29.800724,71.942757 42.439930,70.060104 55.044235,67.968422 
	C59.432568,67.240181 63.763760,66.167603 68.121048,65.252281 
	C51.224884,61.554569 34.477890,58.882317 17.793381,55.864609 
	C15.700399,55.486057 12.637700,53.596855 12.225905,51.879639 
	C8.851542,37.808281 6.018998,23.607391 2.920608,9.468041 
	C2.788956,8.867253 1.662841,8.484386 1.000000,8.000000 
	C1.000000,5.728788 1.000000,3.457577 1.000000,1.000000 
	C4.343423,1.000000 7.688756,1.000000 11.226902,1.307951 
	C12.315844,2.268271 13.142411,3.057783 14.118355,3.552787 
	C34.196827,13.736692 54.363834,23.748653 74.363373,34.084789 
	C92.667763,43.544834 110.794807,53.348022 129.000000,63.000000 
z"/>
<path fill="#000000" opacity="1.000000" stroke="none" 
	d="
M129.000000,62.531342 
	C110.794807,53.348022 92.667763,43.544834 74.363373,34.084789 
	C54.363834,23.748653 34.196827,13.736692 14.118355,3.552787 
	C13.142411,3.057783 12.315844,2.268271 11.709858,1.307951 
	C50.904461,1.000000 89.808922,1.000000 129.000000,1.000000 
	C129.000000,21.353331 129.000000,41.708008 129.000000,62.531342 
z"/>
<path fill="#000000" opacity="1.000000" stroke="none" 
	d="
M12.468657,129.000000 
	C12.741676,128.109344 13.302751,126.866791 14.251604,126.379829 
	C34.716465,115.877281 55.241310,105.491730 75.719162,95.014366 
	C92.030319,86.668869 108.309624,78.260529 124.553307,69.784721 
	C126.015739,69.021637 127.112915,67.558563 128.689850,66.710281 
	C129.000000,87.616043 129.000000,108.232086 129.000000,129.000000 
	C90.312561,129.000000 51.624939,129.000000 12.468657,129.000000 
z"/>
<path fill="#000000" opacity="1.000000" stroke="none" 
	d="
M1.000000,8.468657 
	C1.662841,8.484386 2.788956,8.867253 2.920608,9.468041 
	C6.018998,23.607391 8.851542,37.808281 12.225905,51.879639 
	C12.637700,53.596855 15.700399,55.486057 17.793381,55.864609 
	C34.477890,58.882317 51.224884,61.554569 68.121048,65.252281 
	C63.763760,66.167603 59.432568,67.240181 55.044235,67.968422 
	C42.439930,70.060104 29.800724,71.942757 17.203009,74.071892 
	C14.297127,74.563011 12.521582,75.983162 11.834178,79.612915 
	C9.473285,92.079346 6.441809,104.419830 3.598186,116.792747 
	C3.144026,118.768845 2.342335,120.665070 1.350654,122.299110 
	C1.000000,84.312439 1.000000,46.624878 1.000000,8.468657 
z"/>
</svg>